<mxfile host="Electron" modified="2024-01-30T03:44:15.150Z" agent="Mozilla/5.0 (Windows NT 10.0; WOW64) AppleWebKit/537.36 (KHTML, like Gecko) draw.io/23.0.2 Chrome/120.0.6099.109 Electron/28.1.0 Safari/537.36" etag="KkHGAhhZrdxL8iXZcsdK" version="23.0.2" type="device">
  <diagram name="Page-1" id="g2En_MvE7VVeZXWGFTWg">
    <mxGraphModel dx="1098" dy="838" grid="1" gridSize="10" guides="1" tooltips="1" connect="1" arrows="1" fold="1" page="1" pageScale="1" pageWidth="827" pageHeight="1169" math="0" shadow="0">
      <root>
        <mxCell id="0" />
        <mxCell id="1" parent="0" />
        <mxCell id="BTMg9m3gH8nT0w3-OcOO-14" value="" style="edgeStyle=orthogonalEdgeStyle;rounded=0;orthogonalLoop=1;jettySize=auto;html=1;" parent="1" source="BTMg9m3gH8nT0w3-OcOO-2" target="BTMg9m3gH8nT0w3-OcOO-13" edge="1">
          <mxGeometry relative="1" as="geometry">
            <Array as="points">
              <mxPoint x="451" y="370" />
              <mxPoint x="610" y="370" />
            </Array>
          </mxGeometry>
        </mxCell>
        <mxCell id="BTMg9m3gH8nT0w3-OcOO-16" value="" style="edgeStyle=orthogonalEdgeStyle;rounded=0;orthogonalLoop=1;jettySize=auto;html=1;" parent="1" source="BTMg9m3gH8nT0w3-OcOO-2" target="BTMg9m3gH8nT0w3-OcOO-15" edge="1">
          <mxGeometry relative="1" as="geometry">
            <Array as="points">
              <mxPoint x="451" y="370" />
              <mxPoint x="290" y="370" />
            </Array>
          </mxGeometry>
        </mxCell>
        <mxCell id="BTMg9m3gH8nT0w3-OcOO-19" value="" style="edgeStyle=orthogonalEdgeStyle;rounded=0;orthogonalLoop=1;jettySize=auto;html=1;entryX=0.5;entryY=0;entryDx=0;entryDy=0;" parent="1" source="BTMg9m3gH8nT0w3-OcOO-2" target="BTMg9m3gH8nT0w3-OcOO-9" edge="1">
          <mxGeometry relative="1" as="geometry" />
        </mxCell>
        <mxCell id="BTMg9m3gH8nT0w3-OcOO-2" value="Pair" style="rounded=1;whiteSpace=wrap;html=1;fontSize=16;fontFamily=Lucida Console;" parent="1" vertex="1">
          <mxGeometry x="391" y="290" width="120" height="40" as="geometry" />
        </mxCell>
        <mxCell id="BTMg9m3gH8nT0w3-OcOO-3" value="PairHead" style="rounded=1;whiteSpace=wrap;html=1;fontSize=16;fontFamily=Lucida Console;" parent="1" vertex="1">
          <mxGeometry x="70" y="560" width="120" height="40" as="geometry" />
        </mxCell>
        <mxCell id="BTMg9m3gH8nT0w3-OcOO-5" value="PairCons" style="rounded=1;whiteSpace=wrap;html=1;fontSize=16;fontFamily=Lucida Console;" parent="1" vertex="1">
          <mxGeometry x="230" y="560" width="120" height="40" as="geometry" />
        </mxCell>
        <mxCell id="BTMg9m3gH8nT0w3-OcOO-7" value="PairCyc" style="rounded=1;whiteSpace=wrap;html=1;fontSize=16;fontFamily=Lucida Console;" parent="1" vertex="1">
          <mxGeometry x="380" y="560" width="120" height="40" as="geometry" />
        </mxCell>
        <mxCell id="BTMg9m3gH8nT0w3-OcOO-9" value="PairMark" style="rounded=1;whiteSpace=wrap;html=1;fontSize=16;fontFamily=Lucida Console;" parent="1" vertex="1">
          <mxGeometry x="391" y="444" width="120" height="40" as="geometry" />
        </mxCell>
        <mxCell id="BTMg9m3gH8nT0w3-OcOO-13" value="PairTail" style="rounded=1;whiteSpace=wrap;html=1;fontSize=16;fontFamily=Lucida Console;" parent="1" vertex="1">
          <mxGeometry x="550" y="444" width="120" height="40" as="geometry" />
        </mxCell>
        <mxCell id="BTMg9m3gH8nT0w3-OcOO-17" value="" style="edgeStyle=orthogonalEdgeStyle;rounded=0;orthogonalLoop=1;jettySize=auto;html=1;" parent="1" source="BTMg9m3gH8nT0w3-OcOO-15" target="BTMg9m3gH8nT0w3-OcOO-5" edge="1">
          <mxGeometry relative="1" as="geometry" />
        </mxCell>
        <mxCell id="BTMg9m3gH8nT0w3-OcOO-21" style="edgeStyle=orthogonalEdgeStyle;rounded=0;orthogonalLoop=1;jettySize=auto;html=1;exitX=0.5;exitY=1;exitDx=0;exitDy=0;entryX=0.5;entryY=0;entryDx=0;entryDy=0;" parent="1" source="BTMg9m3gH8nT0w3-OcOO-15" target="BTMg9m3gH8nT0w3-OcOO-3" edge="1">
          <mxGeometry relative="1" as="geometry">
            <Array as="points">
              <mxPoint x="290" y="520" />
              <mxPoint x="130" y="520" />
            </Array>
          </mxGeometry>
        </mxCell>
        <mxCell id="BTMg9m3gH8nT0w3-OcOO-22" style="edgeStyle=orthogonalEdgeStyle;rounded=0;orthogonalLoop=1;jettySize=auto;html=1;exitX=0.5;exitY=1;exitDx=0;exitDy=0;entryX=0.5;entryY=0;entryDx=0;entryDy=0;" parent="1" source="BTMg9m3gH8nT0w3-OcOO-15" target="BTMg9m3gH8nT0w3-OcOO-7" edge="1">
          <mxGeometry relative="1" as="geometry">
            <Array as="points">
              <mxPoint x="290" y="520" />
              <mxPoint x="440" y="520" />
            </Array>
          </mxGeometry>
        </mxCell>
        <mxCell id="BTMg9m3gH8nT0w3-OcOO-15" value="PairUse" style="rounded=1;whiteSpace=wrap;html=1;fontSize=16;fontFamily=Lucida Console;" parent="1" vertex="1">
          <mxGeometry x="230" y="444" width="120" height="40" as="geometry" />
        </mxCell>
      </root>
    </mxGraphModel>
  </diagram>
</mxfile>
